<svg xmlns="http://www.w3.org/2000/svg" viewBox="0 0 1440 320"><path fill="#F5F5F5" fill-opacity="1" d="M0,32L30,80C60,128,120,224,180,234.7C240,245,300,171,360,122.7C420,75,480,53,540,42.7C600,32,660,32,720,32C780,32,840,32,900,48C960,64,1020,96,1080,112C1140,128,1200,128,1260,133.3C1320,139,1380,149,1410,154.7L1440,160L1440,0L1410,0C1380,0,1320,0,1260,0C1200,0,1140,0,1080,0C1020,0,960,0,900,0C840,0,780,0,720,0C660,0,600,0,540,0C480,0,420,0,360,0C300,0,240,0,180,0C120,0,60,0,30,0L0,0Z"></path></svg>