<?xml version="1.0" standalone="no"?><svg xmlns="http://www.w3.org/2000/svg" viewBox="0 0 1440 320"><path fill="#FC5185" fill-opacity="1" d="M0,160L20,160C40,160,80,160,120,181.3C160,203,200,245,240,224C280,203,320,117,360,96C400,75,440,117,480,133.3C520,149,560,139,600,128C640,117,680,107,720,85.3C760,64,800,32,840,37.3C880,43,920,85,960,128C1000,171,1040,213,1080,234.7C1120,256,1160,256,1200,218.7C1240,181,1280,107,1320,64C1360,21,1400,11,1420,5.3L1440,0L1440,0L1420,0C1400,0,1360,0,1320,0C1280,0,1240,0,1200,0C1160,0,1120,0,1080,0C1040,0,1000,0,960,0C920,0,880,0,840,0C800,0,760,0,720,0C680,0,640,0,600,0C560,0,520,0,480,0C440,0,400,0,360,0C320,0,280,0,240,0C200,0,160,0,120,0C80,0,40,0,20,0L0,0Z"></path></svg>